<mxfile host="app.diagrams.net" modified="2022-11-02T08:01:32.071Z" agent="5.0 (Windows NT 10.0; Win64; x64) AppleWebKit/537.36 (KHTML, like Gecko) Chrome/106.0.0.0 Safari/537.36" etag="zg81-8ev58U2CZcWBnMj" version="20.5.1" type="github">
  <diagram id="C2AWJD9VyCwr6O6PHiCk" name="Page-1">
    <mxGraphModel dx="1483" dy="699" grid="1" gridSize="10" guides="1" tooltips="1" connect="1" arrows="1" fold="1" page="1" pageScale="1" pageWidth="850" pageHeight="1100" math="0" shadow="0">
      <root>
        <mxCell id="0" />
        <mxCell id="1" parent="0" />
        <mxCell id="ohemG3Wm1mi0LCUu3z2D-1" value="&lt;b&gt;&lt;font style=&quot;font-size: 15px&quot;&gt;kernel space&lt;/font&gt;&lt;/b&gt;" style="rounded=1;whiteSpace=wrap;html=1;shadow=1;align=left;fillColor=#eeeeee;strokeColor=none;" vertex="1" parent="1">
          <mxGeometry x="100" y="1060" width="870" height="150" as="geometry" />
        </mxCell>
        <mxCell id="ohemG3Wm1mi0LCUu3z2D-2" value="&lt;span&gt;&amp;nbsp; &amp;nbsp; &amp;nbsp; &amp;nbsp;&amp;nbsp;&lt;/span&gt;&lt;b&gt;&lt;font style=&quot;font-size: 18px&quot;&gt;APP Pod&lt;/font&gt;&lt;/b&gt;" style="rounded=1;whiteSpace=wrap;html=1;align=left;verticalAlign=top;strokeWidth=3;fillColor=#eeeeee;strokeColor=#36393d;" vertex="1" parent="1">
          <mxGeometry x="740" y="940" width="150" height="280" as="geometry" />
        </mxCell>
        <mxCell id="ohemG3Wm1mi0LCUu3z2D-3" value="&lt;font style=&quot;font-size: 18px&quot;&gt;&lt;b&gt;&amp;nbsp; &amp;nbsp; &amp;nbsp; &amp;nbsp; Ztunnel&amp;nbsp;&lt;font style=&quot;font-size: 18px&quot;&gt;Pod&lt;/font&gt;&lt;/b&gt;&lt;/font&gt;" style="rounded=1;whiteSpace=wrap;html=1;align=left;verticalAlign=top;fontSize=13;strokeWidth=3;fillColor=#eeeeee;strokeColor=#36393d;" vertex="1" parent="1">
          <mxGeometry x="340" y="940" width="390" height="280" as="geometry" />
        </mxCell>
        <mxCell id="ohemG3Wm1mi0LCUu3z2D-4" value="&lt;font style=&quot;font-size: 18px&quot;&gt;&lt;b&gt;&amp;nbsp; &amp;nbsp; APP&amp;nbsp;&lt;font style=&quot;font-size: 18px&quot;&gt;Pod&lt;/font&gt;&lt;/b&gt;&lt;/font&gt;" style="rounded=1;whiteSpace=wrap;html=1;align=left;verticalAlign=top;fontSize=13;strokeWidth=3;fillColor=#eeeeee;strokeColor=#36393d;" vertex="1" parent="1">
          <mxGeometry x="200" y="940" width="120" height="280" as="geometry" />
        </mxCell>
        <mxCell id="ohemG3Wm1mi0LCUu3z2D-10" style="edgeStyle=orthogonalEdgeStyle;rounded=0;orthogonalLoop=1;jettySize=auto;html=1;strokeColor=#000000;strokeWidth=3;endArrow=none;endFill=0;" edge="1" parent="1" source="ohemG3Wm1mi0LCUu3z2D-11">
          <mxGeometry relative="1" as="geometry">
            <Array as="points">
              <mxPoint x="490" y="1200" />
              <mxPoint x="490" y="1200" />
            </Array>
            <mxPoint x="490" y="1200" as="targetPoint" />
          </mxGeometry>
        </mxCell>
        <mxCell id="ohemG3Wm1mi0LCUu3z2D-11" value="envoy" style="rounded=0;whiteSpace=wrap;html=1;shadow=1;" vertex="1" parent="1">
          <mxGeometry x="430" y="1000" width="200" height="50" as="geometry" />
        </mxCell>
        <mxCell id="ohemG3Wm1mi0LCUu3z2D-12" value="Socket" style="rounded=0;whiteSpace=wrap;html=1;fillColor=#60a917;strokeColor=#2D7600;fontColor=#ffffff;shadow=1;" vertex="1" parent="1">
          <mxGeometry x="450" y="1070" width="80" height="20" as="geometry" />
        </mxCell>
        <mxCell id="ohemG3Wm1mi0LCUu3z2D-13" value="TCP/IP&lt;span style=&quot;color: rgba(0 , 0 , 0 , 0) ; font-family: monospace ; font-size: 0px&quot;&gt;%3CmxGraphModel%3E%3Croot%3E%3CmxCell%20id%3D%220%22%2F%3E%3CmxCell%20id%3D%221%22%20parent%3D%220%22%2F%3E%3CmxCell%20id%3D%222%22%20value%3D%22Socket%22%20style%3D%22rounded%3D0%3BwhiteSpace%3Dwrap%3Bhtml%3D1%3B%22%20vertex%3D%221%22%20parent%3D%221%22%3E%3CmxGeometry%20x%3D%22205%22%20y%3D%22180%22%20width%3D%2280%22%20height%3D%2220%22%20as%3D%22geometry%22%2F%3E%3C%2FmxCell%3E%3C%2Froot%3E%3C%2FmxGraphModel%3E&lt;/span&gt;" style="rounded=0;whiteSpace=wrap;html=1;fillColor=#fff2cc;strokeColor=#d6b656;shadow=1;" vertex="1" parent="1">
          <mxGeometry x="450" y="1100" width="80" height="20" as="geometry" />
        </mxCell>
        <mxCell id="ohemG3Wm1mi0LCUu3z2D-14" value="Ethernet" style="rounded=0;whiteSpace=wrap;html=1;fillColor=#0050ef;strokeColor=#001DBC;fontColor=#ffffff;shadow=1;" vertex="1" parent="1">
          <mxGeometry x="450" y="1160" width="80" height="20" as="geometry" />
        </mxCell>
        <mxCell id="ohemG3Wm1mi0LCUu3z2D-20" style="edgeStyle=orthogonalEdgeStyle;rounded=0;orthogonalLoop=1;jettySize=auto;html=1;strokeColor=#000000;exitX=0.133;exitY=0.893;exitDx=0;exitDy=0;strokeWidth=3;exitPerimeter=0;" edge="1" parent="1" source="ohemG3Wm1mi0LCUu3z2D-27" target="ohemG3Wm1mi0LCUu3z2D-11">
          <mxGeometry relative="1" as="geometry">
            <Array as="points">
              <mxPoint x="487" y="1210" />
              <mxPoint x="490" y="1210" />
              <mxPoint x="490" y="1240" />
              <mxPoint x="590" y="1240" />
            </Array>
            <mxPoint x="642.5" y="1300" as="sourcePoint" />
            <mxPoint x="577.5" y="1100" as="targetPoint" />
          </mxGeometry>
        </mxCell>
        <mxCell id="ohemG3Wm1mi0LCUu3z2D-21" value="Socket" style="rounded=0;whiteSpace=wrap;html=1;fillColor=#60a917;strokeColor=#2D7600;fontColor=#ffffff;shadow=1;" vertex="1" parent="1">
          <mxGeometry x="542" y="1070" width="80" height="20" as="geometry" />
        </mxCell>
        <mxCell id="ohemG3Wm1mi0LCUu3z2D-22" value="TCP/IP&lt;span style=&quot;color: rgba(0 , 0 , 0 , 0) ; font-family: monospace ; font-size: 0px&quot;&gt;%3CmxGraphModel%3E%3Croot%3E%3CmxCell%20id%3D%220%22%2F%3E%3CmxCell%20id%3D%221%22%20parent%3D%220%22%2F%3E%3CmxCell%20id%3D%222%22%20value%3D%22Socket%22%20style%3D%22rounded%3D0%3BwhiteSpace%3Dwrap%3Bhtml%3D1%3B%22%20vertex%3D%221%22%20parent%3D%221%22%3E%3CmxGeometry%20x%3D%22205%22%20y%3D%22180%22%20width%3D%2280%22%20height%3D%2220%22%20as%3D%22geometry%22%2F%3E%3C%2FmxCell%3E%3C%2Froot%3E%3C%2FmxGraphModel%3E&lt;/span&gt;" style="rounded=0;whiteSpace=wrap;html=1;fillColor=#fff2cc;strokeColor=#d6b656;shadow=1;" vertex="1" parent="1">
          <mxGeometry x="542" y="1100" width="80" height="20" as="geometry" />
        </mxCell>
        <mxCell id="ohemG3Wm1mi0LCUu3z2D-23" value="iptables" style="rounded=0;whiteSpace=wrap;html=1;fillColor=#f8cecc;strokeColor=#b85450;shadow=1;" vertex="1" parent="1">
          <mxGeometry x="450" y="1130" width="80" height="20" as="geometry" />
        </mxCell>
        <mxCell id="ohemG3Wm1mi0LCUu3z2D-24" value="Ethernet" style="rounded=0;whiteSpace=wrap;html=1;fillColor=#0050ef;strokeColor=#001DBC;fontColor=#ffffff;shadow=1;" vertex="1" parent="1">
          <mxGeometry x="542" y="1160" width="80" height="20" as="geometry" />
        </mxCell>
        <mxCell id="ohemG3Wm1mi0LCUu3z2D-27" value="lo" style="rounded=0;whiteSpace=wrap;html=1;fillColor=#f5f5f5;strokeColor=#666666;fontColor=#333333;shadow=1;" vertex="1" parent="1">
          <mxGeometry x="450" y="1190" width="170" height="20" as="geometry" />
        </mxCell>
        <mxCell id="ohemG3Wm1mi0LCUu3z2D-30" value="" style="edgeStyle=orthogonalEdgeStyle;rounded=0;orthogonalLoop=1;jettySize=auto;html=1;entryX=0.207;entryY=0.118;entryDx=0;entryDy=0;entryPerimeter=0;strokeWidth=3;endArrow=none;endFill=0;" edge="1" parent="1" source="ohemG3Wm1mi0LCUu3z2D-31">
          <mxGeometry relative="1" as="geometry">
            <mxPoint x="268.2950000000001" y="1192.3600000000001" as="targetPoint" />
          </mxGeometry>
        </mxCell>
        <mxCell id="ohemG3Wm1mi0LCUu3z2D-31" value="client" style="rounded=0;whiteSpace=wrap;html=1;fillColor=#e1d5e7;strokeColor=#9673a6;shadow=1;" vertex="1" parent="1">
          <mxGeometry x="230" y="1000" width="80" height="50" as="geometry" />
        </mxCell>
        <mxCell id="ohemG3Wm1mi0LCUu3z2D-32" value="Socket" style="rounded=0;whiteSpace=wrap;html=1;fillColor=#60a917;strokeColor=#2D7600;fontColor=#ffffff;shadow=1;" vertex="1" parent="1">
          <mxGeometry x="230" y="1070" width="80" height="20" as="geometry" />
        </mxCell>
        <mxCell id="ohemG3Wm1mi0LCUu3z2D-33" value="TCP/IP&lt;span style=&quot;color: rgba(0 , 0 , 0 , 0) ; font-family: monospace ; font-size: 0px&quot;&gt;%3CmxGraphModel%3E%3Croot%3E%3CmxCell%20id%3D%220%22%2F%3E%3CmxCell%20id%3D%221%22%20parent%3D%220%22%2F%3E%3CmxCell%20id%3D%222%22%20value%3D%22Socket%22%20style%3D%22rounded%3D0%3BwhiteSpace%3Dwrap%3Bhtml%3D1%3B%22%20vertex%3D%221%22%20parent%3D%221%22%3E%3CmxGeometry%20x%3D%22205%22%20y%3D%22180%22%20width%3D%2280%22%20height%3D%2220%22%20as%3D%22geometry%22%2F%3E%3C%2FmxCell%3E%3C%2Froot%3E%3C%2FmxGraphModel%3E&lt;/span&gt;" style="rounded=0;whiteSpace=wrap;html=1;fillColor=#fff2cc;strokeColor=#d6b656;shadow=1;" vertex="1" parent="1">
          <mxGeometry x="230" y="1100" width="80" height="20" as="geometry" />
        </mxCell>
        <mxCell id="ohemG3Wm1mi0LCUu3z2D-34" style="edgeStyle=orthogonalEdgeStyle;rounded=0;orthogonalLoop=1;jettySize=auto;html=1;strokeColor=#000000;strokeWidth=3;startArrow=none;" edge="1" parent="1" source="ohemG3Wm1mi0LCUu3z2D-38" target="ohemG3Wm1mi0LCUu3z2D-11">
          <mxGeometry relative="1" as="geometry">
            <Array as="points">
              <mxPoint x="401" y="1025" />
            </Array>
            <mxPoint x="401" y="1190" as="sourcePoint" />
            <mxPoint x="440" y="1025" as="targetPoint" />
          </mxGeometry>
        </mxCell>
        <mxCell id="ohemG3Wm1mi0LCUu3z2D-35" value="Ethernet" style="rounded=0;whiteSpace=wrap;html=1;fillColor=#0050ef;strokeColor=#001DBC;fontColor=#ffffff;shadow=1;" vertex="1" parent="1">
          <mxGeometry x="230" y="1160" width="80" height="20" as="geometry" />
        </mxCell>
        <mxCell id="ohemG3Wm1mi0LCUu3z2D-36" value="Socket" style="rounded=0;whiteSpace=wrap;html=1;fillColor=#60a917;strokeColor=#2D7600;fontColor=#ffffff;shadow=1;" vertex="1" parent="1">
          <mxGeometry x="361" y="1070" width="80" height="20" as="geometry" />
        </mxCell>
        <mxCell id="ohemG3Wm1mi0LCUu3z2D-37" value="TCP/IP&lt;span style=&quot;color: rgba(0 , 0 , 0 , 0) ; font-family: monospace ; font-size: 0px&quot;&gt;%3CmxGraphModel%3E%3Croot%3E%3CmxCell%20id%3D%220%22%2F%3E%3CmxCell%20id%3D%221%22%20parent%3D%220%22%2F%3E%3CmxCell%20id%3D%222%22%20value%3D%22Socket%22%20style%3D%22rounded%3D0%3BwhiteSpace%3Dwrap%3Bhtml%3D1%3B%22%20vertex%3D%221%22%20parent%3D%221%22%3E%3CmxGeometry%20x%3D%22205%22%20y%3D%22180%22%20width%3D%2280%22%20height%3D%2220%22%20as%3D%22geometry%22%2F%3E%3C%2FmxCell%3E%3C%2Froot%3E%3C%2FmxGraphModel%3E&lt;/span&gt;" style="rounded=0;whiteSpace=wrap;html=1;fillColor=#fff2cc;strokeColor=#d6b656;shadow=1;" vertex="1" parent="1">
          <mxGeometry x="361" y="1100" width="80" height="20" as="geometry" />
        </mxCell>
        <mxCell id="ohemG3Wm1mi0LCUu3z2D-38" value="Ethernet" style="rounded=0;whiteSpace=wrap;html=1;fillColor=#0050ef;strokeColor=#001DBC;fontColor=#ffffff;shadow=1;" vertex="1" parent="1">
          <mxGeometry x="361" y="1160" width="80" height="20" as="geometry" />
        </mxCell>
        <mxCell id="ohemG3Wm1mi0LCUu3z2D-39" style="edgeStyle=orthogonalEdgeStyle;rounded=0;orthogonalLoop=1;jettySize=auto;html=1;exitX=0.5;exitY=1;exitDx=0;exitDy=0;entryX=0.5;entryY=1;entryDx=0;entryDy=0;endArrow=none;endFill=0;strokeWidth=3;startArrow=none;" edge="1" parent="1" source="ohemG3Wm1mi0LCUu3z2D-56" target="ohemG3Wm1mi0LCUu3z2D-38">
          <mxGeometry relative="1" as="geometry" />
        </mxCell>
        <mxCell id="ohemG3Wm1mi0LCUu3z2D-40" value="eth0" style="rounded=0;whiteSpace=wrap;html=1;fillColor=#f5f5f5;strokeColor=#666666;fontColor=#333333;shadow=1;" vertex="1" parent="1">
          <mxGeometry x="230" y="1190" width="80" height="20" as="geometry" />
        </mxCell>
        <mxCell id="ohemG3Wm1mi0LCUu3z2D-41" value="iptables" style="rounded=0;whiteSpace=wrap;html=1;fillColor=#f8cecc;strokeColor=#b85450;shadow=1;" vertex="1" parent="1">
          <mxGeometry x="361" y="1130" width="80" height="20" as="geometry" />
        </mxCell>
        <mxCell id="ohemG3Wm1mi0LCUu3z2D-42" value="server" style="rounded=0;whiteSpace=wrap;html=1;fillColor=#e1d5e7;strokeColor=#9673a6;shadow=1;" vertex="1" parent="1">
          <mxGeometry x="765" y="1000" width="80" height="50" as="geometry" />
        </mxCell>
        <mxCell id="ohemG3Wm1mi0LCUu3z2D-43" style="edgeStyle=orthogonalEdgeStyle;rounded=0;orthogonalLoop=1;jettySize=auto;html=1;entryX=0.5;entryY=1;entryDx=0;entryDy=0;strokeColor=#000000;strokeWidth=3;" edge="1" parent="1" target="ohemG3Wm1mi0LCUu3z2D-42">
          <mxGeometry relative="1" as="geometry">
            <Array as="points">
              <mxPoint x="805" y="1150" />
              <mxPoint x="805" y="1150" />
            </Array>
            <mxPoint x="805" y="1190" as="sourcePoint" />
          </mxGeometry>
        </mxCell>
        <mxCell id="ohemG3Wm1mi0LCUu3z2D-44" value="Socket" style="rounded=0;whiteSpace=wrap;html=1;fillColor=#60a917;strokeColor=#2D7600;fontColor=#ffffff;shadow=1;" vertex="1" parent="1">
          <mxGeometry x="765" y="1070" width="80" height="20" as="geometry" />
        </mxCell>
        <mxCell id="ohemG3Wm1mi0LCUu3z2D-45" value="TCP/IP&lt;span style=&quot;color: rgba(0 , 0 , 0 , 0) ; font-family: monospace ; font-size: 0px&quot;&gt;%3CmxGraphModel%3E%3Croot%3E%3CmxCell%20id%3D%220%22%2F%3E%3CmxCell%20id%3D%221%22%20parent%3D%220%22%2F%3E%3CmxCell%20id%3D%222%22%20value%3D%22Socket%22%20style%3D%22rounded%3D0%3BwhiteSpace%3Dwrap%3Bhtml%3D1%3B%22%20vertex%3D%221%22%20parent%3D%221%22%3E%3CmxGeometry%20x%3D%22205%22%20y%3D%22180%22%20width%3D%2280%22%20height%3D%2220%22%20as%3D%22geometry%22%2F%3E%3C%2FmxCell%3E%3C%2Froot%3E%3C%2FmxGraphModel%3E&lt;/span&gt;" style="rounded=0;whiteSpace=wrap;html=1;fillColor=#fff2cc;strokeColor=#d6b656;shadow=1;" vertex="1" parent="1">
          <mxGeometry x="765" y="1100" width="80" height="20" as="geometry" />
        </mxCell>
        <mxCell id="ohemG3Wm1mi0LCUu3z2D-46" value="Ethernet" style="rounded=0;whiteSpace=wrap;html=1;fillColor=#0050ef;strokeColor=#001DBC;fontColor=#ffffff;shadow=1;" vertex="1" parent="1">
          <mxGeometry x="765" y="1160" width="80" height="20" as="geometry" />
        </mxCell>
        <mxCell id="ohemG3Wm1mi0LCUu3z2D-47" style="edgeStyle=orthogonalEdgeStyle;rounded=0;orthogonalLoop=1;jettySize=auto;html=1;entryX=0.212;entryY=0.099;entryDx=0;entryDy=0;entryPerimeter=0;strokeColor=#000000;strokeWidth=3;endArrow=none;endFill=0;exitX=1;exitY=0.5;exitDx=0;exitDy=0;" edge="1" parent="1" source="ohemG3Wm1mi0LCUu3z2D-11">
          <mxGeometry relative="1" as="geometry">
            <mxPoint x="674.2200000000003" y="1191.98" as="targetPoint" />
            <mxPoint x="675" y="1050" as="sourcePoint" />
            <Array as="points">
              <mxPoint x="674" y="1025" />
            </Array>
          </mxGeometry>
        </mxCell>
        <mxCell id="ohemG3Wm1mi0LCUu3z2D-49" style="edgeStyle=orthogonalEdgeStyle;rounded=0;orthogonalLoop=1;jettySize=auto;html=1;entryX=0.5;entryY=1;entryDx=0;entryDy=0;strokeWidth=3;endArrow=none;endFill=0;" edge="1" parent="1" target="ohemG3Wm1mi0LCUu3z2D-53">
          <mxGeometry relative="1" as="geometry">
            <mxPoint x="710" y="1210" as="sourcePoint" />
            <Array as="points">
              <mxPoint x="670" y="1210" />
              <mxPoint x="670" y="1230" />
              <mxPoint x="805" y="1230" />
            </Array>
          </mxGeometry>
        </mxCell>
        <mxCell id="ohemG3Wm1mi0LCUu3z2D-50" value="Socket" style="rounded=0;whiteSpace=wrap;html=1;fillColor=#60a917;strokeColor=#2D7600;fontColor=#ffffff;shadow=1;" vertex="1" parent="1">
          <mxGeometry x="635" y="1070" width="80" height="20" as="geometry" />
        </mxCell>
        <mxCell id="ohemG3Wm1mi0LCUu3z2D-51" value="TCP/IP&lt;span style=&quot;color: rgba(0 , 0 , 0 , 0) ; font-family: monospace ; font-size: 0px&quot;&gt;%3CmxGraphModel%3E%3Croot%3E%3CmxCell%20id%3D%220%22%2F%3E%3CmxCell%20id%3D%221%22%20parent%3D%220%22%2F%3E%3CmxCell%20id%3D%222%22%20value%3D%22Socket%22%20style%3D%22rounded%3D0%3BwhiteSpace%3Dwrap%3Bhtml%3D1%3B%22%20vertex%3D%221%22%20parent%3D%221%22%3E%3CmxGeometry%20x%3D%22205%22%20y%3D%22180%22%20width%3D%2280%22%20height%3D%2220%22%20as%3D%22geometry%22%2F%3E%3C%2FmxCell%3E%3C%2Froot%3E%3C%2FmxGraphModel%3E&lt;/span&gt;" style="rounded=0;whiteSpace=wrap;html=1;fillColor=#fff2cc;strokeColor=#d6b656;shadow=1;" vertex="1" parent="1">
          <mxGeometry x="635" y="1100" width="80" height="20" as="geometry" />
        </mxCell>
        <mxCell id="ohemG3Wm1mi0LCUu3z2D-52" value="Ethernet" style="rounded=0;whiteSpace=wrap;html=1;fillColor=#0050ef;strokeColor=#001DBC;fontColor=#ffffff;shadow=1;" vertex="1" parent="1">
          <mxGeometry x="635" y="1160" width="80" height="20" as="geometry" />
        </mxCell>
        <mxCell id="ohemG3Wm1mi0LCUu3z2D-53" value="eth0" style="rounded=0;whiteSpace=wrap;html=1;fillColor=#f5f5f5;strokeColor=#666666;fontColor=#333333;shadow=1;" vertex="1" parent="1">
          <mxGeometry x="765" y="1190" width="80" height="20" as="geometry" />
        </mxCell>
        <mxCell id="ohemG3Wm1mi0LCUu3z2D-55" value="eth0" style="rounded=0;whiteSpace=wrap;html=1;fillColor=#f5f5f5;strokeColor=#666666;fontColor=#333333;shadow=1;" vertex="1" parent="1">
          <mxGeometry x="635" y="1190" width="80" height="20" as="geometry" />
        </mxCell>
        <mxCell id="ohemG3Wm1mi0LCUu3z2D-56" value="eth0" style="rounded=0;whiteSpace=wrap;html=1;fillColor=#f5f5f5;strokeColor=#666666;fontColor=#333333;shadow=1;" vertex="1" parent="1">
          <mxGeometry x="361" y="1190" width="80" height="20" as="geometry" />
        </mxCell>
        <mxCell id="ohemG3Wm1mi0LCUu3z2D-57" value="" style="edgeStyle=orthogonalEdgeStyle;rounded=0;orthogonalLoop=1;jettySize=auto;html=1;exitX=0.5;exitY=1;exitDx=0;exitDy=0;entryX=0.5;entryY=1;entryDx=0;entryDy=0;endArrow=none;endFill=0;strokeWidth=3;" edge="1" parent="1" source="ohemG3Wm1mi0LCUu3z2D-40" target="ohemG3Wm1mi0LCUu3z2D-56">
          <mxGeometry relative="1" as="geometry">
            <mxPoint x="270" y="1210" as="sourcePoint" />
            <mxPoint x="401" y="1180" as="targetPoint" />
          </mxGeometry>
        </mxCell>
        <mxCell id="ohemG3Wm1mi0LCUu3z2D-58" value="&lt;b&gt;&lt;font style=&quot;font-size: 15px&quot;&gt;kernel space&lt;/font&gt;&lt;/b&gt;" style="rounded=1;whiteSpace=wrap;html=1;shadow=1;align=left;fillColor=#eeeeee;strokeColor=none;" vertex="1" parent="1">
          <mxGeometry x="110" y="1410" width="870" height="150" as="geometry" />
        </mxCell>
        <mxCell id="ohemG3Wm1mi0LCUu3z2D-59" value="&lt;span&gt;&amp;nbsp; &amp;nbsp; &amp;nbsp; &amp;nbsp;&amp;nbsp;&lt;/span&gt;&lt;b&gt;&lt;font style=&quot;font-size: 18px&quot;&gt;APP Pod&lt;/font&gt;&lt;/b&gt;" style="rounded=1;whiteSpace=wrap;html=1;align=left;verticalAlign=top;strokeWidth=3;fillColor=#eeeeee;strokeColor=#36393d;" vertex="1" parent="1">
          <mxGeometry x="750" y="1290" width="150" height="280" as="geometry" />
        </mxCell>
        <mxCell id="ohemG3Wm1mi0LCUu3z2D-60" value="&lt;font style=&quot;font-size: 18px&quot;&gt;&lt;b&gt;&amp;nbsp; &amp;nbsp; &amp;nbsp; &amp;nbsp; Ztunnel&amp;nbsp;&lt;font style=&quot;font-size: 18px&quot;&gt;Pod&lt;/font&gt;&lt;/b&gt;&lt;/font&gt;" style="rounded=1;whiteSpace=wrap;html=1;align=left;verticalAlign=top;fontSize=13;strokeWidth=3;fillColor=#eeeeee;strokeColor=#36393d;" vertex="1" parent="1">
          <mxGeometry x="350" y="1290" width="390" height="280" as="geometry" />
        </mxCell>
        <mxCell id="ohemG3Wm1mi0LCUu3z2D-61" value="&lt;font style=&quot;font-size: 18px&quot;&gt;&lt;b&gt;&amp;nbsp; &amp;nbsp; APP&amp;nbsp;&lt;font style=&quot;font-size: 18px&quot;&gt;Pod&lt;/font&gt;&lt;/b&gt;&lt;/font&gt;" style="rounded=1;whiteSpace=wrap;html=1;align=left;verticalAlign=top;fontSize=13;strokeWidth=3;fillColor=#eeeeee;strokeColor=#36393d;" vertex="1" parent="1">
          <mxGeometry x="210" y="1290" width="120" height="280" as="geometry" />
        </mxCell>
        <mxCell id="ohemG3Wm1mi0LCUu3z2D-62" style="edgeStyle=orthogonalEdgeStyle;rounded=0;orthogonalLoop=1;jettySize=auto;html=1;strokeColor=#000000;strokeWidth=3;endArrow=none;endFill=0;entryX=0.25;entryY=0;entryDx=0;entryDy=0;" edge="1" parent="1" source="ohemG3Wm1mi0LCUu3z2D-63" target="ohemG3Wm1mi0LCUu3z2D-101">
          <mxGeometry relative="1" as="geometry">
            <Array as="points">
              <mxPoint x="500" y="1460" />
            </Array>
            <mxPoint x="500" y="1550" as="targetPoint" />
          </mxGeometry>
        </mxCell>
        <mxCell id="ohemG3Wm1mi0LCUu3z2D-63" value="envoy" style="rounded=0;whiteSpace=wrap;html=1;shadow=1;" vertex="1" parent="1">
          <mxGeometry x="440" y="1350" width="200" height="50" as="geometry" />
        </mxCell>
        <mxCell id="ohemG3Wm1mi0LCUu3z2D-64" value="Socket" style="rounded=0;whiteSpace=wrap;html=1;fillColor=#60a917;strokeColor=#2D7600;fontColor=#ffffff;shadow=1;" vertex="1" parent="1">
          <mxGeometry x="460" y="1420" width="80" height="20" as="geometry" />
        </mxCell>
        <mxCell id="ohemG3Wm1mi0LCUu3z2D-67" style="edgeStyle=orthogonalEdgeStyle;rounded=0;orthogonalLoop=1;jettySize=auto;html=1;strokeColor=#000000;strokeWidth=3;exitX=0.69;exitY=0.279;exitDx=0;exitDy=0;exitPerimeter=0;" edge="1" parent="1" source="ohemG3Wm1mi0LCUu3z2D-101" target="ohemG3Wm1mi0LCUu3z2D-63">
          <mxGeometry relative="1" as="geometry">
            <Array as="points">
              <mxPoint x="593" y="1466" />
              <mxPoint x="593" y="1470" />
              <mxPoint x="590" y="1470" />
            </Array>
            <mxPoint x="590" y="1590" as="sourcePoint" />
            <mxPoint x="587.5" y="1450" as="targetPoint" />
          </mxGeometry>
        </mxCell>
        <mxCell id="ohemG3Wm1mi0LCUu3z2D-68" value="Socket" style="rounded=0;whiteSpace=wrap;html=1;fillColor=#60a917;strokeColor=#2D7600;fontColor=#ffffff;shadow=1;" vertex="1" parent="1">
          <mxGeometry x="552" y="1420" width="80" height="20" as="geometry" />
        </mxCell>
        <mxCell id="ohemG3Wm1mi0LCUu3z2D-73" value="" style="edgeStyle=orthogonalEdgeStyle;rounded=0;orthogonalLoop=1;jettySize=auto;html=1;entryX=0.25;entryY=0;entryDx=0;entryDy=0;strokeWidth=3;endArrow=none;endFill=0;" edge="1" parent="1" source="ohemG3Wm1mi0LCUu3z2D-74" target="ohemG3Wm1mi0LCUu3z2D-99">
          <mxGeometry relative="1" as="geometry">
            <mxPoint x="278.2950000000001" y="1542.3600000000001" as="targetPoint" />
            <Array as="points">
              <mxPoint x="281" y="1440" />
              <mxPoint x="281" y="1440" />
            </Array>
          </mxGeometry>
        </mxCell>
        <mxCell id="ohemG3Wm1mi0LCUu3z2D-74" value="client" style="rounded=0;whiteSpace=wrap;html=1;fillColor=#e1d5e7;strokeColor=#9673a6;shadow=1;" vertex="1" parent="1">
          <mxGeometry x="240" y="1350" width="80" height="50" as="geometry" />
        </mxCell>
        <mxCell id="ohemG3Wm1mi0LCUu3z2D-75" value="Socket" style="rounded=0;whiteSpace=wrap;html=1;fillColor=#60a917;strokeColor=#2D7600;fontColor=#ffffff;shadow=1;" vertex="1" parent="1">
          <mxGeometry x="240" y="1420" width="80" height="20" as="geometry" />
        </mxCell>
        <mxCell id="ohemG3Wm1mi0LCUu3z2D-77" style="edgeStyle=orthogonalEdgeStyle;rounded=0;orthogonalLoop=1;jettySize=auto;html=1;strokeColor=#000000;strokeWidth=3;startArrow=none;exitX=0.882;exitY=0.707;exitDx=0;exitDy=0;exitPerimeter=0;" edge="1" parent="1" source="ohemG3Wm1mi0LCUu3z2D-99" target="ohemG3Wm1mi0LCUu3z2D-63">
          <mxGeometry relative="1" as="geometry">
            <Array as="points">
              <mxPoint x="411" y="1375" />
            </Array>
            <mxPoint x="411" y="1510" as="sourcePoint" />
            <mxPoint x="450" y="1375" as="targetPoint" />
          </mxGeometry>
        </mxCell>
        <mxCell id="ohemG3Wm1mi0LCUu3z2D-79" value="Socket" style="rounded=0;whiteSpace=wrap;html=1;fillColor=#60a917;strokeColor=#2D7600;fontColor=#ffffff;shadow=1;" vertex="1" parent="1">
          <mxGeometry x="371" y="1420" width="80" height="20" as="geometry" />
        </mxCell>
        <mxCell id="ohemG3Wm1mi0LCUu3z2D-85" value="server" style="rounded=0;whiteSpace=wrap;html=1;fillColor=#e1d5e7;strokeColor=#9673a6;shadow=1;" vertex="1" parent="1">
          <mxGeometry x="775" y="1350" width="80" height="50" as="geometry" />
        </mxCell>
        <mxCell id="ohemG3Wm1mi0LCUu3z2D-86" style="edgeStyle=orthogonalEdgeStyle;rounded=0;orthogonalLoop=1;jettySize=auto;html=1;entryX=0.5;entryY=1;entryDx=0;entryDy=0;strokeColor=#000000;strokeWidth=3;exitX=0.821;exitY=0.721;exitDx=0;exitDy=0;exitPerimeter=0;" edge="1" parent="1" target="ohemG3Wm1mi0LCUu3z2D-85" source="ohemG3Wm1mi0LCUu3z2D-102">
          <mxGeometry relative="1" as="geometry">
            <Array as="points">
              <mxPoint x="815" y="1474" />
            </Array>
            <mxPoint x="815" y="1540" as="sourcePoint" />
          </mxGeometry>
        </mxCell>
        <mxCell id="ohemG3Wm1mi0LCUu3z2D-87" value="Socket" style="rounded=0;whiteSpace=wrap;html=1;fillColor=#60a917;strokeColor=#2D7600;fontColor=#ffffff;shadow=1;" vertex="1" parent="1">
          <mxGeometry x="775" y="1420" width="80" height="20" as="geometry" />
        </mxCell>
        <mxCell id="ohemG3Wm1mi0LCUu3z2D-90" style="edgeStyle=orthogonalEdgeStyle;rounded=0;orthogonalLoop=1;jettySize=auto;html=1;entryX=0.108;entryY=0.036;entryDx=0;entryDy=0;entryPerimeter=0;strokeColor=#000000;strokeWidth=3;endArrow=none;endFill=0;exitX=1;exitY=0.5;exitDx=0;exitDy=0;" edge="1" parent="1" source="ohemG3Wm1mi0LCUu3z2D-63" target="ohemG3Wm1mi0LCUu3z2D-102">
          <mxGeometry relative="1" as="geometry">
            <mxPoint x="684.2200000000003" y="1541.98" as="targetPoint" />
            <mxPoint x="685" y="1400" as="sourcePoint" />
            <Array as="points">
              <mxPoint x="684" y="1375" />
              <mxPoint x="684" y="1461" />
            </Array>
          </mxGeometry>
        </mxCell>
        <mxCell id="ohemG3Wm1mi0LCUu3z2D-92" value="Socket" style="rounded=0;whiteSpace=wrap;html=1;fillColor=#60a917;strokeColor=#2D7600;fontColor=#ffffff;shadow=1;" vertex="1" parent="1">
          <mxGeometry x="645" y="1420" width="80" height="20" as="geometry" />
        </mxCell>
        <mxCell id="ohemG3Wm1mi0LCUu3z2D-99" value="ebpf" style="rounded=0;whiteSpace=wrap;html=1;fillColor=#f0a30a;strokeColor=#BD7000;shadow=1;fontColor=#000000;" vertex="1" parent="1">
          <mxGeometry x="230" y="1460" width="205" height="20" as="geometry" />
        </mxCell>
        <mxCell id="ohemG3Wm1mi0LCUu3z2D-101" value="ebpf" style="rounded=0;whiteSpace=wrap;html=1;fillColor=#f0a30a;strokeColor=#BD7000;shadow=1;fontColor=#000000;" vertex="1" parent="1">
          <mxGeometry x="460" y="1460" width="170" height="20" as="geometry" />
        </mxCell>
        <mxCell id="ohemG3Wm1mi0LCUu3z2D-102" value="ebpf" style="rounded=0;whiteSpace=wrap;html=1;fillColor=#f0a30a;strokeColor=#BD7000;shadow=1;fontColor=#000000;" vertex="1" parent="1">
          <mxGeometry x="650" y="1460" width="210" height="20" as="geometry" />
        </mxCell>
      </root>
    </mxGraphModel>
  </diagram>
</mxfile>
